<?xml version="1.0" encoding="iso-8859-1"?>
<!-- Generator: Adobe Illustrator 19.0.0, SVG Export Plug-In . SVG Version: 6.00 Build 0)  -->
<svg version="1.1" id="Layer_1" xmlns="http://www.w3.org/2000/svg" xmlns:xlink="http://www.w3.org/1999/xlink" x="0px" y="0px"
	 viewBox="0 0 512 512" style="enable-background:new 0 0 512 512;" xml:space="preserve">
<path style="fill:#FF9269;" d="M256,0C114.615,0,0,114.615,0,256c0,118.322,80.273,217.896,189.33,247.233L503.231,189.33
	C473.896,80.273,374.322,0,256,0z"/>
<path style="fill:#FF754F;" d="M122.435,436.313l66.901,66.901C210.592,508.932,232.937,512,256,512c141.385,0,256-114.616,256-256
	c0-23.063-3.068-45.408-8.786-66.665L389.565,75.687l-32.742,25.136l-25.136-25.136l-32.092,25.786l-25.786-25.786l-29.357,28.522
	L215.93,75.687l-29.774,28.104l-28.104-28.104l-35.617,35.617l27.284,27.284l-27.284,30.594l29.225,29.225L122.435,436.313z"/>
<polygon style="fill:#D0FBFD;" points="389.565,191.443 389.565,369.53 345.043,391.791 322.783,436.313 256,436.313 
	211.478,331.687 256,215.93 273.809,227.061 296.07,227.061 296.07,191.443 "/>
<polygon style="fill:#FFFFFF;" points="256,215.93 256,436.313 122.435,436.313 122.435,227.061 140.243,215.93 158.052,227.061 
	180.313,227.061 198.122,215.93 215.93,227.061 238.191,227.061 "/>
<polygon style="fill:#78E3EC;" points="322.783,369.53 322.783,436.313 389.565,369.53 "/>
<g>
	<rect x="122.435" y="75.687" style="fill:#FFEAB5;" width="35.617" height="35.617"/>
	<rect x="180.313" y="75.687" style="fill:#FFEAB5;" width="35.617" height="35.617"/>
	<rect x="296.07" y="75.687" style="fill:#FFEAB5;" width="35.617" height="35.617"/>
</g>
<rect x="353.948" y="75.687" style="fill:#D0FBFD;" width="35.617" height="35.617"/>
<polygon style="fill:#FFBE35;" points="273.809,75.687 273.809,111.304 256,111.304 244.87,93.496 256,75.687 "/>
<rect x="238.191" y="75.687" style="fill:#FFDB8A;" width="17.809" height="35.617"/>
<rect x="122.435" y="133.565" style="fill:#FFCD9C;" width="35.617" height="35.617"/>
<rect x="180.313" y="133.565" style="fill:#D0FBFD;" width="35.617" height="35.617"/>
<rect x="296.07" y="133.565" style="fill:#FFEAB5;" width="35.617" height="35.617"/>
<rect x="353.948" y="133.565" style="fill:#FFB082;" width="35.617" height="35.617"/>
<polygon style="fill:#FF9269;" points="273.809,133.565 273.809,169.183 256,169.183 244.87,151.374 256,133.565 "/>
<rect x="238.191" y="133.565" style="fill:#FFB082;" width="17.809" height="35.617"/>
<rect x="122.435" y="191.443" style="fill:#50D1DD;" width="35.617" height="35.617"/>
<rect x="180.313" y="191.443" style="fill:#FFEAB5;" width="35.617" height="35.617"/>
<rect x="296.07" y="249.322" style="fill:#FF9269;" width="35.617" height="35.617"/>
<polygon style="fill:#A0F6FA;" points="273.809,191.443 273.809,227.061 256,227.061 244.87,209.252 256,191.443 "/>
<rect x="238.191" y="191.443" style="fill:#D0FBFD;" width="17.809" height="35.617"/>
<rect x="180.313" y="249.322" style="fill:#FFCD9C;" width="35.617" height="35.617"/>
<rect x="180.313" y="307.2" style="fill:#A0F6FA;" width="35.617" height="35.617"/>
<polygon style="fill:#FFDB8A;" points="273.809,249.322 273.809,284.939 256,284.939 244.87,267.13 256,249.322 "/>
<rect x="238.191" y="249.322" style="fill:#FFEAB5;" width="17.809" height="35.617"/>
<g>
</g>
<g>
</g>
<g>
</g>
<g>
</g>
<g>
</g>
<g>
</g>
<g>
</g>
<g>
</g>
<g>
</g>
<g>
</g>
<g>
</g>
<g>
</g>
<g>
</g>
<g>
</g>
<g>
</g>
</svg>
